<mxfile host="Electron" modified="2023-10-23T00:48:25.680Z" agent="Mozilla/5.0 (Windows NT 10.0; Win64; x64) AppleWebKit/537.36 (KHTML, like Gecko) draw.io/21.7.5 Chrome/114.0.5735.289 Electron/25.8.1 Safari/537.36" etag="2XjQ1jZTJ6ljAqMN7zEY" version="21.7.5" type="device">
  <diagram name="Page-1" id="7KC1j4inf83qbPpEGJv1">
    <mxGraphModel dx="2440" dy="1408" grid="1" gridSize="10" guides="1" tooltips="1" connect="1" arrows="1" fold="1" page="1" pageScale="1" pageWidth="850" pageHeight="1100" math="0" shadow="0">
      <root>
        <mxCell id="0" />
        <mxCell id="1" parent="0" />
        <mxCell id="W06_xyROyRmE8jpRIwYH-2" value="" style="rounded=0;whiteSpace=wrap;html=1;movable=1;resizable=1;rotatable=1;deletable=1;editable=1;locked=0;connectable=1;" parent="1" vertex="1">
          <mxGeometry x="30" y="40" width="930" height="6350" as="geometry" />
        </mxCell>
        <mxCell id="W06_xyROyRmE8jpRIwYH-3" value="&lt;font style=&quot;font-size: 96px;&quot;&gt;TekSystems&lt;/font&gt;" style="rounded=0;whiteSpace=wrap;html=1;" parent="1" vertex="1">
          <mxGeometry x="30" y="40" width="940" height="160" as="geometry" />
        </mxCell>
        <mxCell id="W06_xyROyRmE8jpRIwYH-6" value="" style="rounded=0;whiteSpace=wrap;html=1;movable=1;resizable=1;rotatable=1;deletable=1;editable=1;locked=0;connectable=1;" parent="1" vertex="1">
          <mxGeometry x="960" y="50" width="930" height="6340" as="geometry" />
        </mxCell>
        <mxCell id="W06_xyROyRmE8jpRIwYH-5" value="&lt;span style=&quot;font-size: 96px;&quot;&gt;Internal System&lt;/span&gt;" style="rounded=0;whiteSpace=wrap;html=1;" parent="1" vertex="1">
          <mxGeometry x="960" y="40" width="930" height="160" as="geometry" />
        </mxCell>
        <mxCell id="W06_xyROyRmE8jpRIwYH-8" value="" style="rounded=0;whiteSpace=wrap;html=1;" parent="1" vertex="1">
          <mxGeometry x="1890" y="80" width="930" height="6310" as="geometry" />
        </mxCell>
        <mxCell id="W06_xyROyRmE8jpRIwYH-9" value="&lt;span style=&quot;font-size: 96px;&quot;&gt;Financial Department&lt;/span&gt;" style="rounded=0;whiteSpace=wrap;html=1;" parent="1" vertex="1">
          <mxGeometry x="1890" y="40" width="930" height="160" as="geometry" />
        </mxCell>
        <mxCell id="W06_xyROyRmE8jpRIwYH-10" value="" style="rounded=0;whiteSpace=wrap;html=1;" parent="1" vertex="1">
          <mxGeometry x="2820" y="40" width="930" height="6350" as="geometry" />
        </mxCell>
        <mxCell id="W06_xyROyRmE8jpRIwYH-11" value="&lt;span style=&quot;font-size: 96px;&quot;&gt;IT Manager&lt;/span&gt;" style="rounded=0;whiteSpace=wrap;html=1;" parent="1" vertex="1">
          <mxGeometry x="2820" y="40" width="930" height="160" as="geometry" />
        </mxCell>
        <mxCell id="W06_xyROyRmE8jpRIwYH-15" style="edgeStyle=orthogonalEdgeStyle;rounded=0;orthogonalLoop=1;jettySize=auto;html=1;" parent="1" source="W06_xyROyRmE8jpRIwYH-12" target="W06_xyROyRmE8jpRIwYH-14" edge="1">
          <mxGeometry relative="1" as="geometry" />
        </mxCell>
        <mxCell id="W06_xyROyRmE8jpRIwYH-12" value="" style="ellipse;whiteSpace=wrap;html=1;fillColor=#000000;" parent="1" vertex="1">
          <mxGeometry x="450" y="220" width="50" height="50" as="geometry" />
        </mxCell>
        <mxCell id="W06_xyROyRmE8jpRIwYH-18" style="edgeStyle=orthogonalEdgeStyle;rounded=0;orthogonalLoop=1;jettySize=auto;html=1;" parent="1" source="W06_xyROyRmE8jpRIwYH-14" target="W06_xyROyRmE8jpRIwYH-17" edge="1">
          <mxGeometry relative="1" as="geometry" />
        </mxCell>
        <mxCell id="W06_xyROyRmE8jpRIwYH-14" value="Employee signs in to timeclock" style="rounded=1;whiteSpace=wrap;html=1;fontSize=16;" parent="1" vertex="1">
          <mxGeometry x="355" y="320" width="240" height="120" as="geometry" />
        </mxCell>
        <mxCell id="W06_xyROyRmE8jpRIwYH-27" style="edgeStyle=orthogonalEdgeStyle;rounded=0;orthogonalLoop=1;jettySize=auto;html=1;" parent="1" source="W06_xyROyRmE8jpRIwYH-17" target="W06_xyROyRmE8jpRIwYH-26" edge="1">
          <mxGeometry relative="1" as="geometry">
            <Array as="points">
              <mxPoint x="1435" y="470" />
              <mxPoint x="475" y="470" />
            </Array>
          </mxGeometry>
        </mxCell>
        <mxCell id="W06_xyROyRmE8jpRIwYH-17" value="System logs start time" style="rounded=1;whiteSpace=wrap;html=1;fontSize=16;" parent="1" vertex="1">
          <mxGeometry x="1315" y="320" width="240" height="120" as="geometry" />
        </mxCell>
        <mxCell id="W06_xyROyRmE8jpRIwYH-29" style="edgeStyle=orthogonalEdgeStyle;rounded=0;orthogonalLoop=1;jettySize=auto;html=1;" parent="1" source="W06_xyROyRmE8jpRIwYH-26" target="W06_xyROyRmE8jpRIwYH-28" edge="1">
          <mxGeometry relative="1" as="geometry" />
        </mxCell>
        <mxCell id="W06_xyROyRmE8jpRIwYH-26" value="Employee checks tasks and notifications/priorities" style="rounded=1;whiteSpace=wrap;html=1;fontSize=16;" parent="1" vertex="1">
          <mxGeometry x="355" y="490" width="240" height="120" as="geometry" />
        </mxCell>
        <mxCell id="W06_xyROyRmE8jpRIwYH-33" style="edgeStyle=orthogonalEdgeStyle;rounded=0;orthogonalLoop=1;jettySize=auto;html=1;entryX=0.5;entryY=0;entryDx=0;entryDy=0;" parent="1" source="W06_xyROyRmE8jpRIwYH-28" target="W06_xyROyRmE8jpRIwYH-31" edge="1">
          <mxGeometry relative="1" as="geometry">
            <Array as="points">
              <mxPoint x="1435" y="630" />
              <mxPoint x="470" y="630" />
            </Array>
          </mxGeometry>
        </mxCell>
        <mxCell id="W06_xyROyRmE8jpRIwYH-28" value="System logs tasks started" style="rounded=1;whiteSpace=wrap;html=1;fontSize=16;" parent="1" vertex="1">
          <mxGeometry x="1315" y="490" width="240" height="120" as="geometry" />
        </mxCell>
        <mxCell id="W06_xyROyRmE8jpRIwYH-38" style="edgeStyle=orthogonalEdgeStyle;rounded=0;orthogonalLoop=1;jettySize=auto;html=1;" parent="1" source="W06_xyROyRmE8jpRIwYH-31" target="W06_xyROyRmE8jpRIwYH-37" edge="1">
          <mxGeometry relative="1" as="geometry" />
        </mxCell>
        <mxCell id="W06_xyROyRmE8jpRIwYH-39" value="Completed" style="edgeLabel;html=1;align=center;verticalAlign=middle;resizable=0;points=[];fontSize=16;" parent="W06_xyROyRmE8jpRIwYH-38" vertex="1" connectable="0">
          <mxGeometry x="-0.8581" y="-2" relative="1" as="geometry">
            <mxPoint as="offset" />
          </mxGeometry>
        </mxCell>
        <mxCell id="W06_xyROyRmE8jpRIwYH-43" style="edgeStyle=orthogonalEdgeStyle;rounded=0;orthogonalLoop=1;jettySize=auto;html=1;" parent="1" source="W06_xyROyRmE8jpRIwYH-31" target="W06_xyROyRmE8jpRIwYH-42" edge="1">
          <mxGeometry relative="1" as="geometry" />
        </mxCell>
        <mxCell id="W06_xyROyRmE8jpRIwYH-46" value="Not completed" style="edgeLabel;html=1;align=center;verticalAlign=middle;resizable=0;points=[];fontSize=16;" parent="W06_xyROyRmE8jpRIwYH-43" vertex="1" connectable="0">
          <mxGeometry x="-0.5143" y="2" relative="1" as="geometry">
            <mxPoint as="offset" />
          </mxGeometry>
        </mxCell>
        <mxCell id="W06_xyROyRmE8jpRIwYH-31" value="Task" style="rhombus;whiteSpace=wrap;html=1;fontSize=16;" parent="1" vertex="1">
          <mxGeometry x="400" y="660" width="140" height="140" as="geometry" />
        </mxCell>
        <mxCell id="W06_xyROyRmE8jpRIwYH-50" style="edgeStyle=orthogonalEdgeStyle;rounded=0;orthogonalLoop=1;jettySize=auto;html=1;" parent="1" source="W06_xyROyRmE8jpRIwYH-37" edge="1">
          <mxGeometry relative="1" as="geometry">
            <mxPoint x="1680" y="730" as="targetPoint" />
          </mxGeometry>
        </mxCell>
        <mxCell id="W06_xyROyRmE8jpRIwYH-37" value="System logs task completed" style="rounded=1;whiteSpace=wrap;html=1;fontSize=16;" parent="1" vertex="1">
          <mxGeometry x="1315" y="670" width="240" height="120" as="geometry" />
        </mxCell>
        <mxCell id="W06_xyROyRmE8jpRIwYH-51" style="edgeStyle=orthogonalEdgeStyle;rounded=0;orthogonalLoop=1;jettySize=auto;html=1;" parent="1" source="W06_xyROyRmE8jpRIwYH-40" edge="1">
          <mxGeometry relative="1" as="geometry">
            <mxPoint x="1680" y="930.0000000000002" as="targetPoint" />
          </mxGeometry>
        </mxCell>
        <mxCell id="W06_xyROyRmE8jpRIwYH-40" value="System logs task not completed with reasoning" style="rounded=1;whiteSpace=wrap;html=1;fontSize=16;" parent="1" vertex="1">
          <mxGeometry x="1315" y="870" width="240" height="120" as="geometry" />
        </mxCell>
        <mxCell id="W06_xyROyRmE8jpRIwYH-47" style="edgeStyle=orthogonalEdgeStyle;rounded=0;orthogonalLoop=1;jettySize=auto;html=1;" parent="1" source="W06_xyROyRmE8jpRIwYH-42" target="W06_xyROyRmE8jpRIwYH-40" edge="1">
          <mxGeometry relative="1" as="geometry" />
        </mxCell>
        <mxCell id="W06_xyROyRmE8jpRIwYH-42" value="Employee enters comments" style="rounded=1;whiteSpace=wrap;html=1;fontSize=16;" parent="1" vertex="1">
          <mxGeometry x="350" y="870" width="240" height="120" as="geometry" />
        </mxCell>
        <mxCell id="W06_xyROyRmE8jpRIwYH-49" value="" style="endArrow=none;html=1;rounded=0;strokeWidth=2;" parent="1" edge="1">
          <mxGeometry width="50" height="50" relative="1" as="geometry">
            <mxPoint x="1680" y="990" as="sourcePoint" />
            <mxPoint x="1680" y="670" as="targetPoint" />
          </mxGeometry>
        </mxCell>
        <mxCell id="W06_xyROyRmE8jpRIwYH-72" style="edgeStyle=orthogonalEdgeStyle;rounded=0;orthogonalLoop=1;jettySize=auto;html=1;entryX=0.5;entryY=0;entryDx=0;entryDy=0;" parent="1" source="W06_xyROyRmE8jpRIwYH-54" target="W06_xyROyRmE8jpRIwYH-65" edge="1">
          <mxGeometry relative="1" as="geometry">
            <Array as="points">
              <mxPoint x="710" y="1100" />
              <mxPoint x="710" y="1040" />
              <mxPoint x="475" y="1040" />
            </Array>
          </mxGeometry>
        </mxCell>
        <mxCell id="W06_xyROyRmE8jpRIwYH-54" value="System updates tasks and priorities, logs information, time and sends notifications as needed" style="rounded=1;whiteSpace=wrap;html=1;fontSize=16;" parent="1" vertex="1">
          <mxGeometry x="1315" y="1040" width="240" height="120" as="geometry" />
        </mxCell>
        <mxCell id="W06_xyROyRmE8jpRIwYH-61" style="edgeStyle=orthogonalEdgeStyle;rounded=0;orthogonalLoop=1;jettySize=auto;html=1;" parent="1" source="W06_xyROyRmE8jpRIwYH-58" target="W06_xyROyRmE8jpRIwYH-60" edge="1">
          <mxGeometry relative="1" as="geometry" />
        </mxCell>
        <mxCell id="W06_xyROyRmE8jpRIwYH-58" value="Employee takes break" style="rounded=1;whiteSpace=wrap;html=1;fontSize=16;" parent="1" vertex="1">
          <mxGeometry x="355" y="1460" width="240" height="120" as="geometry" />
        </mxCell>
        <mxCell id="W06_xyROyRmE8jpRIwYH-78" style="edgeStyle=orthogonalEdgeStyle;rounded=0;orthogonalLoop=1;jettySize=auto;html=1;" parent="1" source="W06_xyROyRmE8jpRIwYH-60" target="W06_xyROyRmE8jpRIwYH-62" edge="1">
          <mxGeometry relative="1" as="geometry">
            <Array as="points">
              <mxPoint x="1640" y="1520" />
              <mxPoint x="1640" y="1610" />
              <mxPoint x="475" y="1610" />
            </Array>
          </mxGeometry>
        </mxCell>
        <mxCell id="W06_xyROyRmE8jpRIwYH-60" value="System logs start and end time" style="rounded=1;whiteSpace=wrap;html=1;fontSize=16;" parent="1" vertex="1">
          <mxGeometry x="1300" y="1460" width="240" height="120" as="geometry" />
        </mxCell>
        <mxCell id="W06_xyROyRmE8jpRIwYH-94" style="edgeStyle=orthogonalEdgeStyle;rounded=0;orthogonalLoop=1;jettySize=auto;html=1;" parent="1" source="W06_xyROyRmE8jpRIwYH-62" target="W06_xyROyRmE8jpRIwYH-79" edge="1">
          <mxGeometry relative="1" as="geometry" />
        </mxCell>
        <mxCell id="W06_xyROyRmE8jpRIwYH-62" value="Employee resumes tasks" style="rounded=1;whiteSpace=wrap;html=1;fontSize=16;" parent="1" vertex="1">
          <mxGeometry x="355" y="1640" width="240" height="120" as="geometry" />
        </mxCell>
        <mxCell id="W06_xyROyRmE8jpRIwYH-73" style="edgeStyle=orthogonalEdgeStyle;rounded=0;orthogonalLoop=1;jettySize=auto;html=1;" parent="1" source="W06_xyROyRmE8jpRIwYH-65" target="W06_xyROyRmE8jpRIwYH-70" edge="1">
          <mxGeometry relative="1" as="geometry" />
        </mxCell>
        <mxCell id="W06_xyROyRmE8jpRIwYH-65" value="Employee starts new task" style="rounded=1;whiteSpace=wrap;html=1;fontSize=16;" parent="1" vertex="1">
          <mxGeometry x="355" y="1060" width="240" height="120" as="geometry" />
        </mxCell>
        <mxCell id="W06_xyROyRmE8jpRIwYH-74" style="edgeStyle=orthogonalEdgeStyle;rounded=0;orthogonalLoop=1;jettySize=auto;html=1;entryX=0;entryY=0.5;entryDx=0;entryDy=0;" parent="1" source="W06_xyROyRmE8jpRIwYH-70" target="W06_xyROyRmE8jpRIwYH-31" edge="1">
          <mxGeometry relative="1" as="geometry">
            <Array as="points">
              <mxPoint x="190" y="1330" />
              <mxPoint x="190" y="730" />
            </Array>
          </mxGeometry>
        </mxCell>
        <mxCell id="W06_xyROyRmE8jpRIwYH-75" value="No" style="edgeLabel;html=1;align=center;verticalAlign=middle;resizable=0;points=[];fontSize=16;" parent="W06_xyROyRmE8jpRIwYH-74" vertex="1" connectable="0">
          <mxGeometry x="-0.8713" y="1" relative="1" as="geometry">
            <mxPoint as="offset" />
          </mxGeometry>
        </mxCell>
        <mxCell id="W06_xyROyRmE8jpRIwYH-76" style="edgeStyle=orthogonalEdgeStyle;rounded=0;orthogonalLoop=1;jettySize=auto;html=1;" parent="1" source="W06_xyROyRmE8jpRIwYH-70" target="W06_xyROyRmE8jpRIwYH-58" edge="1">
          <mxGeometry relative="1" as="geometry" />
        </mxCell>
        <mxCell id="W06_xyROyRmE8jpRIwYH-77" value="Yes" style="edgeLabel;html=1;align=center;verticalAlign=middle;resizable=0;points=[];fontSize=16;" parent="W06_xyROyRmE8jpRIwYH-76" vertex="1" connectable="0">
          <mxGeometry x="-0.4053" y="2" relative="1" as="geometry">
            <mxPoint as="offset" />
          </mxGeometry>
        </mxCell>
        <mxCell id="W06_xyROyRmE8jpRIwYH-70" value="Break?" style="rhombus;whiteSpace=wrap;html=1;fontSize=16;" parent="1" vertex="1">
          <mxGeometry x="405" y="1260" width="140" height="140" as="geometry" />
        </mxCell>
        <mxCell id="W06_xyROyRmE8jpRIwYH-71" value="" style="endArrow=classic;html=1;rounded=0;edgeStyle=elbowEdgeStyle;entryX=1;entryY=0.5;entryDx=0;entryDy=0;" parent="1" target="W06_xyROyRmE8jpRIwYH-54" edge="1">
          <mxGeometry width="50" height="50" relative="1" as="geometry">
            <mxPoint x="1680" y="830" as="sourcePoint" />
            <mxPoint x="1810" y="820" as="targetPoint" />
            <Array as="points">
              <mxPoint x="1790" y="960" />
            </Array>
          </mxGeometry>
        </mxCell>
        <mxCell id="W06_xyROyRmE8jpRIwYH-93" style="edgeStyle=orthogonalEdgeStyle;rounded=0;orthogonalLoop=1;jettySize=auto;html=1;" parent="1" source="W06_xyROyRmE8jpRIwYH-79" target="W06_xyROyRmE8jpRIwYH-87" edge="1">
          <mxGeometry relative="1" as="geometry" />
        </mxCell>
        <mxCell id="W06_xyROyRmE8jpRIwYH-95" value="Not completed" style="edgeLabel;html=1;align=center;verticalAlign=middle;resizable=0;points=[];fontSize=16;" parent="W06_xyROyRmE8jpRIwYH-93" vertex="1" connectable="0">
          <mxGeometry x="-0.2298" relative="1" as="geometry">
            <mxPoint as="offset" />
          </mxGeometry>
        </mxCell>
        <mxCell id="W06_xyROyRmE8jpRIwYH-96" style="edgeStyle=orthogonalEdgeStyle;rounded=0;orthogonalLoop=1;jettySize=auto;html=1;" parent="1" source="W06_xyROyRmE8jpRIwYH-79" target="W06_xyROyRmE8jpRIwYH-83" edge="1">
          <mxGeometry relative="1" as="geometry" />
        </mxCell>
        <mxCell id="W06_xyROyRmE8jpRIwYH-98" value="Completed" style="edgeLabel;html=1;align=center;verticalAlign=middle;resizable=0;points=[];fontSize=16;" parent="W06_xyROyRmE8jpRIwYH-96" vertex="1" connectable="0">
          <mxGeometry x="-0.8903" y="1" relative="1" as="geometry">
            <mxPoint as="offset" />
          </mxGeometry>
        </mxCell>
        <mxCell id="W06_xyROyRmE8jpRIwYH-100" style="edgeStyle=orthogonalEdgeStyle;rounded=0;orthogonalLoop=1;jettySize=auto;html=1;jumpStyle=gap;entryX=0;entryY=0.5;entryDx=0;entryDy=0;" parent="1" source="W06_xyROyRmE8jpRIwYH-79" target="W06_xyROyRmE8jpRIwYH-102" edge="1">
          <mxGeometry relative="1" as="geometry">
            <mxPoint x="110" y="2440" as="targetPoint" />
            <Array as="points">
              <mxPoint x="110" y="1890" />
              <mxPoint x="110" y="2480" />
            </Array>
          </mxGeometry>
        </mxCell>
        <mxCell id="W06_xyROyRmE8jpRIwYH-103" value="End of shift" style="edgeLabel;html=1;align=center;verticalAlign=middle;resizable=0;points=[];fontSize=16;" parent="W06_xyROyRmE8jpRIwYH-100" vertex="1" connectable="0">
          <mxGeometry x="-0.9049" y="-1" relative="1" as="geometry">
            <mxPoint x="-25" y="1" as="offset" />
          </mxGeometry>
        </mxCell>
        <mxCell id="W06_xyROyRmE8jpRIwYH-79" value="Task" style="rhombus;whiteSpace=wrap;html=1;fontSize=16;" parent="1" vertex="1">
          <mxGeometry x="405" y="1820" width="140" height="140" as="geometry" />
        </mxCell>
        <mxCell id="W06_xyROyRmE8jpRIwYH-97" style="edgeStyle=orthogonalEdgeStyle;rounded=0;orthogonalLoop=1;jettySize=auto;html=1;" parent="1" source="W06_xyROyRmE8jpRIwYH-83" edge="1">
          <mxGeometry relative="1" as="geometry">
            <mxPoint x="1680" y="1889" as="targetPoint" />
          </mxGeometry>
        </mxCell>
        <mxCell id="W06_xyROyRmE8jpRIwYH-83" value="System logs task completed" style="rounded=1;whiteSpace=wrap;html=1;fontSize=16;" parent="1" vertex="1">
          <mxGeometry x="1320" y="1829" width="240" height="120" as="geometry" />
        </mxCell>
        <mxCell id="W06_xyROyRmE8jpRIwYH-84" style="edgeStyle=orthogonalEdgeStyle;rounded=0;orthogonalLoop=1;jettySize=auto;html=1;" parent="1" source="W06_xyROyRmE8jpRIwYH-85" edge="1">
          <mxGeometry relative="1" as="geometry">
            <mxPoint x="1685" y="2080" as="targetPoint" />
          </mxGeometry>
        </mxCell>
        <mxCell id="W06_xyROyRmE8jpRIwYH-85" value="System logs task not completed with reasoning" style="rounded=1;whiteSpace=wrap;html=1;fontSize=16;" parent="1" vertex="1">
          <mxGeometry x="1320" y="2020" width="240" height="120" as="geometry" />
        </mxCell>
        <mxCell id="W06_xyROyRmE8jpRIwYH-86" style="edgeStyle=orthogonalEdgeStyle;rounded=0;orthogonalLoop=1;jettySize=auto;html=1;" parent="1" source="W06_xyROyRmE8jpRIwYH-87" target="W06_xyROyRmE8jpRIwYH-85" edge="1">
          <mxGeometry relative="1" as="geometry" />
        </mxCell>
        <mxCell id="W06_xyROyRmE8jpRIwYH-87" value="Employee enters comments" style="rounded=1;whiteSpace=wrap;html=1;fontSize=16;" parent="1" vertex="1">
          <mxGeometry x="355" y="2020" width="240" height="120" as="geometry" />
        </mxCell>
        <mxCell id="W06_xyROyRmE8jpRIwYH-88" value="" style="endArrow=none;html=1;rounded=0;strokeWidth=2;" parent="1" edge="1">
          <mxGeometry width="50" height="50" relative="1" as="geometry">
            <mxPoint x="1685" y="2140" as="sourcePoint" />
            <mxPoint x="1685" y="1820" as="targetPoint" />
          </mxGeometry>
        </mxCell>
        <mxCell id="W06_xyROyRmE8jpRIwYH-89" style="edgeStyle=orthogonalEdgeStyle;rounded=0;orthogonalLoop=1;jettySize=auto;html=1;entryX=0.5;entryY=0;entryDx=0;entryDy=0;" parent="1" source="W06_xyROyRmE8jpRIwYH-90" target="W06_xyROyRmE8jpRIwYH-91" edge="1">
          <mxGeometry relative="1" as="geometry">
            <Array as="points">
              <mxPoint x="715" y="2250" />
              <mxPoint x="715" y="2190" />
              <mxPoint x="480" y="2190" />
            </Array>
          </mxGeometry>
        </mxCell>
        <mxCell id="W06_xyROyRmE8jpRIwYH-90" value="System updates tasks and priorities, logs information, time and sends notifications as needed" style="rounded=1;whiteSpace=wrap;html=1;fontSize=16;" parent="1" vertex="1">
          <mxGeometry x="1320" y="2190" width="240" height="120" as="geometry" />
        </mxCell>
        <mxCell id="W06_xyROyRmE8jpRIwYH-101" style="edgeStyle=orthogonalEdgeStyle;rounded=0;orthogonalLoop=1;jettySize=auto;html=1;entryX=0.5;entryY=0;entryDx=0;entryDy=0;jumpStyle=line;jumpSize=16;" parent="1" source="W06_xyROyRmE8jpRIwYH-91" target="W06_xyROyRmE8jpRIwYH-79" edge="1">
          <mxGeometry relative="1" as="geometry">
            <Array as="points">
              <mxPoint x="210" y="2270" />
              <mxPoint x="210" y="1800" />
              <mxPoint x="475" y="1800" />
            </Array>
          </mxGeometry>
        </mxCell>
        <mxCell id="W06_xyROyRmE8jpRIwYH-91" value="Employee starts new task" style="rounded=1;whiteSpace=wrap;html=1;fontSize=16;" parent="1" vertex="1">
          <mxGeometry x="360" y="2210" width="240" height="120" as="geometry" />
        </mxCell>
        <mxCell id="W06_xyROyRmE8jpRIwYH-92" value="" style="endArrow=classic;html=1;rounded=0;edgeStyle=elbowEdgeStyle;entryX=1;entryY=0.5;entryDx=0;entryDy=0;" parent="1" target="W06_xyROyRmE8jpRIwYH-90" edge="1">
          <mxGeometry width="50" height="50" relative="1" as="geometry">
            <mxPoint x="1685" y="1980" as="sourcePoint" />
            <mxPoint x="1815" y="1970" as="targetPoint" />
            <Array as="points">
              <mxPoint x="1795" y="2110" />
            </Array>
          </mxGeometry>
        </mxCell>
        <mxCell id="W06_xyROyRmE8jpRIwYH-105" style="edgeStyle=orthogonalEdgeStyle;rounded=0;orthogonalLoop=1;jettySize=auto;html=1;" parent="1" source="W06_xyROyRmE8jpRIwYH-102" target="W06_xyROyRmE8jpRIwYH-104" edge="1">
          <mxGeometry relative="1" as="geometry" />
        </mxCell>
        <mxCell id="W06_xyROyRmE8jpRIwYH-102" value="Employee logs out of time clock" style="rounded=1;whiteSpace=wrap;html=1;fontSize=16;" parent="1" vertex="1">
          <mxGeometry x="360" y="2420" width="240" height="120" as="geometry" />
        </mxCell>
        <mxCell id="W06_xyROyRmE8jpRIwYH-107" style="edgeStyle=orthogonalEdgeStyle;rounded=0;orthogonalLoop=1;jettySize=auto;html=1;" parent="1" source="W06_xyROyRmE8jpRIwYH-104" target="W06_xyROyRmE8jpRIwYH-106" edge="1">
          <mxGeometry relative="1" as="geometry" />
        </mxCell>
        <mxCell id="W06_xyROyRmE8jpRIwYH-104" value="System logs hours" style="rounded=1;whiteSpace=wrap;html=1;fontSize=16;" parent="1" vertex="1">
          <mxGeometry x="1315" y="2420" width="240" height="120" as="geometry" />
        </mxCell>
        <mxCell id="W06_xyROyRmE8jpRIwYH-110" style="edgeStyle=orthogonalEdgeStyle;rounded=0;orthogonalLoop=1;jettySize=auto;html=1;" parent="1" source="W06_xyROyRmE8jpRIwYH-106" target="W06_xyROyRmE8jpRIwYH-108" edge="1">
          <mxGeometry relative="1" as="geometry" />
        </mxCell>
        <mxCell id="W06_xyROyRmE8jpRIwYH-106" value="System calculates end of day hours" style="rounded=1;whiteSpace=wrap;html=1;fontSize=16;" parent="1" vertex="1">
          <mxGeometry x="1315" y="2580" width="240" height="120" as="geometry" />
        </mxCell>
        <mxCell id="W06_xyROyRmE8jpRIwYH-112" style="edgeStyle=orthogonalEdgeStyle;rounded=0;orthogonalLoop=1;jettySize=auto;html=1;" parent="1" source="W06_xyROyRmE8jpRIwYH-108" target="W06_xyROyRmE8jpRIwYH-111" edge="1">
          <mxGeometry relative="1" as="geometry" />
        </mxCell>
        <mxCell id="W06_xyROyRmE8jpRIwYH-108" value="System compares end of day hours with previous weeks end of day hours to check for any inaccuracies" style="rounded=1;whiteSpace=wrap;html=1;fontSize=16;" parent="1" vertex="1">
          <mxGeometry x="1315" y="2740" width="240" height="120" as="geometry" />
        </mxCell>
        <mxCell id="W06_xyROyRmE8jpRIwYH-114" style="edgeStyle=orthogonalEdgeStyle;rounded=0;orthogonalLoop=1;jettySize=auto;html=1;" parent="1" source="W06_xyROyRmE8jpRIwYH-111" target="W06_xyROyRmE8jpRIwYH-113" edge="1">
          <mxGeometry relative="1" as="geometry" />
        </mxCell>
        <mxCell id="W06_xyROyRmE8jpRIwYH-115" value="Yes" style="edgeLabel;html=1;align=center;verticalAlign=middle;resizable=0;points=[];fontSize=16;" parent="W06_xyROyRmE8jpRIwYH-114" vertex="1" connectable="0">
          <mxGeometry x="-0.695" y="-3" relative="1" as="geometry">
            <mxPoint as="offset" />
          </mxGeometry>
        </mxCell>
        <mxCell id="W06_xyROyRmE8jpRIwYH-117" style="edgeStyle=orthogonalEdgeStyle;rounded=0;orthogonalLoop=1;jettySize=auto;html=1;" parent="1" source="W06_xyROyRmE8jpRIwYH-111" target="W06_xyROyRmE8jpRIwYH-116" edge="1">
          <mxGeometry relative="1" as="geometry" />
        </mxCell>
        <mxCell id="W06_xyROyRmE8jpRIwYH-118" value="No" style="edgeLabel;html=1;align=center;verticalAlign=middle;resizable=0;points=[];fontSize=16;" parent="W06_xyROyRmE8jpRIwYH-117" vertex="1" connectable="0">
          <mxGeometry x="-0.6891" y="-1" relative="1" as="geometry">
            <mxPoint as="offset" />
          </mxGeometry>
        </mxCell>
        <mxCell id="W06_xyROyRmE8jpRIwYH-111" value="Inaccuracy" style="rhombus;whiteSpace=wrap;html=1;fontSize=16;" parent="1" vertex="1">
          <mxGeometry x="1365" y="2920" width="140" height="140" as="geometry" />
        </mxCell>
        <mxCell id="W06_xyROyRmE8jpRIwYH-120" style="edgeStyle=orthogonalEdgeStyle;rounded=0;orthogonalLoop=1;jettySize=auto;html=1;" parent="1" source="W06_xyROyRmE8jpRIwYH-113" target="W06_xyROyRmE8jpRIwYH-119" edge="1">
          <mxGeometry relative="1" as="geometry" />
        </mxCell>
        <mxCell id="W06_xyROyRmE8jpRIwYH-113" value="Alert employee" style="rounded=1;whiteSpace=wrap;html=1;fontSize=16;" parent="1" vertex="1">
          <mxGeometry x="1075" y="3170" width="240" height="120" as="geometry" />
        </mxCell>
        <mxCell id="W06_xyROyRmE8jpRIwYH-124" style="edgeStyle=orthogonalEdgeStyle;rounded=0;orthogonalLoop=1;jettySize=auto;html=1;" parent="1" source="W06_xyROyRmE8jpRIwYH-116" target="W06_xyROyRmE8jpRIwYH-123" edge="1">
          <mxGeometry relative="1" as="geometry" />
        </mxCell>
        <mxCell id="W06_xyROyRmE8jpRIwYH-116" value="Employee hours logged" style="rounded=1;whiteSpace=wrap;html=1;fontSize=16;" parent="1" vertex="1">
          <mxGeometry x="1315" y="3480" width="240" height="120" as="geometry" />
        </mxCell>
        <mxCell id="W06_xyROyRmE8jpRIwYH-121" style="edgeStyle=orthogonalEdgeStyle;rounded=0;orthogonalLoop=1;jettySize=auto;html=1;entryX=0;entryY=0.5;entryDx=0;entryDy=0;" parent="1" source="W06_xyROyRmE8jpRIwYH-119" target="W06_xyROyRmE8jpRIwYH-116" edge="1">
          <mxGeometry relative="1" as="geometry">
            <Array as="points">
              <mxPoint x="480" y="3540" />
            </Array>
          </mxGeometry>
        </mxCell>
        <mxCell id="W06_xyROyRmE8jpRIwYH-119" value="Employee corrects hours or bypass system" style="rounded=1;whiteSpace=wrap;html=1;fontSize=16;" parent="1" vertex="1">
          <mxGeometry x="360" y="3171" width="240" height="120" as="geometry" />
        </mxCell>
        <mxCell id="W06_xyROyRmE8jpRIwYH-125" style="edgeStyle=orthogonalEdgeStyle;rounded=0;orthogonalLoop=1;jettySize=auto;html=1;entryX=0.5;entryY=0;entryDx=0;entryDy=0;" parent="1" source="W06_xyROyRmE8jpRIwYH-123" target="W06_xyROyRmE8jpRIwYH-14" edge="1">
          <mxGeometry relative="1" as="geometry">
            <Array as="points">
              <mxPoint x="60" y="3750" />
              <mxPoint x="60" y="300" />
              <mxPoint x="475" y="300" />
            </Array>
          </mxGeometry>
        </mxCell>
        <mxCell id="W06_xyROyRmE8jpRIwYH-126" value="No" style="edgeLabel;html=1;align=center;verticalAlign=middle;resizable=0;points=[];fontSize=16;" parent="W06_xyROyRmE8jpRIwYH-125" vertex="1" connectable="0">
          <mxGeometry x="-0.9898" y="3" relative="1" as="geometry">
            <mxPoint as="offset" />
          </mxGeometry>
        </mxCell>
        <mxCell id="W06_xyROyRmE8jpRIwYH-129" style="edgeStyle=orthogonalEdgeStyle;rounded=0;orthogonalLoop=1;jettySize=auto;html=1;" parent="1" source="W06_xyROyRmE8jpRIwYH-123" target="W06_xyROyRmE8jpRIwYH-128" edge="1">
          <mxGeometry relative="1" as="geometry" />
        </mxCell>
        <mxCell id="W06_xyROyRmE8jpRIwYH-150" value="Yes" style="edgeLabel;html=1;align=center;verticalAlign=middle;resizable=0;points=[];fontSize=16;" parent="W06_xyROyRmE8jpRIwYH-129" vertex="1" connectable="0">
          <mxGeometry x="-0.3215" y="2" relative="1" as="geometry">
            <mxPoint as="offset" />
          </mxGeometry>
        </mxCell>
        <mxCell id="W06_xyROyRmE8jpRIwYH-123" value="End of week" style="rhombus;whiteSpace=wrap;html=1;fontSize=16;" parent="1" vertex="1">
          <mxGeometry x="1365" y="3680" width="140" height="140" as="geometry" />
        </mxCell>
        <mxCell id="W06_xyROyRmE8jpRIwYH-131" style="edgeStyle=orthogonalEdgeStyle;rounded=0;orthogonalLoop=1;jettySize=auto;html=1;" parent="1" source="W06_xyROyRmE8jpRIwYH-128" target="W06_xyROyRmE8jpRIwYH-130" edge="1">
          <mxGeometry relative="1" as="geometry" />
        </mxCell>
        <mxCell id="W06_xyROyRmE8jpRIwYH-128" value="System consolidates and formats all employee times, projects completed, not completed, breaks, and summarizes" style="rounded=1;whiteSpace=wrap;html=1;fontSize=16;" parent="1" vertex="1">
          <mxGeometry x="1315" y="3870" width="240" height="120" as="geometry" />
        </mxCell>
        <mxCell id="W06_xyROyRmE8jpRIwYH-135" style="edgeStyle=orthogonalEdgeStyle;rounded=0;orthogonalLoop=1;jettySize=auto;html=1;" parent="1" source="W06_xyROyRmE8jpRIwYH-130" target="W06_xyROyRmE8jpRIwYH-134" edge="1">
          <mxGeometry relative="1" as="geometry" />
        </mxCell>
        <mxCell id="W06_xyROyRmE8jpRIwYH-130" value="Manager reads summary for each person" style="rounded=1;whiteSpace=wrap;html=1;fontSize=16;" parent="1" vertex="1">
          <mxGeometry x="350" y="3870" width="240" height="120" as="geometry" />
        </mxCell>
        <mxCell id="W06_xyROyRmE8jpRIwYH-137" style="edgeStyle=orthogonalEdgeStyle;rounded=0;orthogonalLoop=1;jettySize=auto;html=1;" parent="1" source="W06_xyROyRmE8jpRIwYH-134" target="W06_xyROyRmE8jpRIwYH-136" edge="1">
          <mxGeometry relative="1" as="geometry">
            <Array as="points">
              <mxPoint x="310" y="4130" />
            </Array>
          </mxGeometry>
        </mxCell>
        <mxCell id="W06_xyROyRmE8jpRIwYH-138" value="No" style="edgeLabel;html=1;align=center;verticalAlign=middle;resizable=0;points=[];fontSize=16;" parent="W06_xyROyRmE8jpRIwYH-137" vertex="1" connectable="0">
          <mxGeometry x="-0.6367" relative="1" as="geometry">
            <mxPoint as="offset" />
          </mxGeometry>
        </mxCell>
        <mxCell id="W06_xyROyRmE8jpRIwYH-145" style="edgeStyle=orthogonalEdgeStyle;rounded=0;orthogonalLoop=1;jettySize=auto;html=1;" parent="1" source="W06_xyROyRmE8jpRIwYH-134" target="W06_xyROyRmE8jpRIwYH-144" edge="1">
          <mxGeometry relative="1" as="geometry">
            <Array as="points">
              <mxPoint x="630" y="4130" />
            </Array>
          </mxGeometry>
        </mxCell>
        <mxCell id="W06_xyROyRmE8jpRIwYH-146" value="Yes" style="edgeLabel;html=1;align=center;verticalAlign=middle;resizable=0;points=[];fontSize=16;" parent="W06_xyROyRmE8jpRIwYH-145" vertex="1" connectable="0">
          <mxGeometry x="-0.6367" y="-1" relative="1" as="geometry">
            <mxPoint as="offset" />
          </mxGeometry>
        </mxCell>
        <mxCell id="W06_xyROyRmE8jpRIwYH-134" value="Accurate" style="rhombus;whiteSpace=wrap;html=1;fontSize=16;" parent="1" vertex="1">
          <mxGeometry x="400" y="4060" width="140" height="140" as="geometry" />
        </mxCell>
        <mxCell id="W06_xyROyRmE8jpRIwYH-140" style="edgeStyle=orthogonalEdgeStyle;rounded=0;orthogonalLoop=1;jettySize=auto;html=1;" parent="1" source="W06_xyROyRmE8jpRIwYH-136" target="W06_xyROyRmE8jpRIwYH-139" edge="1">
          <mxGeometry relative="1" as="geometry" />
        </mxCell>
        <mxCell id="W06_xyROyRmE8jpRIwYH-136" value="Hours are rejected" style="rounded=1;whiteSpace=wrap;html=1;fontSize=16;" parent="1" vertex="1">
          <mxGeometry x="190" y="4240" width="240" height="120" as="geometry" />
        </mxCell>
        <mxCell id="W06_xyROyRmE8jpRIwYH-142" style="edgeStyle=orthogonalEdgeStyle;rounded=0;orthogonalLoop=1;jettySize=auto;html=1;" parent="1" source="W06_xyROyRmE8jpRIwYH-139" target="W06_xyROyRmE8jpRIwYH-141" edge="1">
          <mxGeometry relative="1" as="geometry" />
        </mxCell>
        <mxCell id="W06_xyROyRmE8jpRIwYH-139" value="Employee gets notification" style="rounded=1;whiteSpace=wrap;html=1;fontSize=16;" parent="1" vertex="1">
          <mxGeometry x="190" y="4430" width="240" height="120" as="geometry" />
        </mxCell>
        <mxCell id="W06_xyROyRmE8jpRIwYH-143" style="edgeStyle=orthogonalEdgeStyle;rounded=0;orthogonalLoop=1;jettySize=auto;html=1;entryX=0;entryY=0.5;entryDx=0;entryDy=0;" parent="1" source="W06_xyROyRmE8jpRIwYH-141" target="W06_xyROyRmE8jpRIwYH-130" edge="1">
          <mxGeometry relative="1" as="geometry">
            <Array as="points">
              <mxPoint x="100" y="4650" />
              <mxPoint x="100" y="3930" />
            </Array>
          </mxGeometry>
        </mxCell>
        <mxCell id="W06_xyROyRmE8jpRIwYH-141" value="Employee corrects hours" style="rounded=1;whiteSpace=wrap;html=1;fontSize=16;" parent="1" vertex="1">
          <mxGeometry x="190" y="4590" width="240" height="120" as="geometry" />
        </mxCell>
        <mxCell id="W06_xyROyRmE8jpRIwYH-148" style="edgeStyle=orthogonalEdgeStyle;rounded=0;orthogonalLoop=1;jettySize=auto;html=1;" parent="1" source="W06_xyROyRmE8jpRIwYH-144" target="W06_xyROyRmE8jpRIwYH-147" edge="1">
          <mxGeometry relative="1" as="geometry" />
        </mxCell>
        <mxCell id="W06_xyROyRmE8jpRIwYH-144" value="Hours are approved" style="rounded=1;whiteSpace=wrap;html=1;fontSize=16;" parent="1" vertex="1">
          <mxGeometry x="510" y="4240" width="240" height="120" as="geometry" />
        </mxCell>
        <mxCell id="W06_xyROyRmE8jpRIwYH-152" style="edgeStyle=orthogonalEdgeStyle;rounded=0;orthogonalLoop=1;jettySize=auto;html=1;" parent="1" source="W06_xyROyRmE8jpRIwYH-147" target="W06_xyROyRmE8jpRIwYH-151" edge="1">
          <mxGeometry relative="1" as="geometry" />
        </mxCell>
        <mxCell id="W06_xyROyRmE8jpRIwYH-147" value="Invoice is generated with consolidated information" style="rounded=1;whiteSpace=wrap;html=1;fontSize=16;" parent="1" vertex="1">
          <mxGeometry x="1315" y="4240" width="240" height="120" as="geometry" />
        </mxCell>
        <mxCell id="W06_xyROyRmE8jpRIwYH-155" style="edgeStyle=orthogonalEdgeStyle;rounded=0;orthogonalLoop=1;jettySize=auto;html=1;" parent="1" source="W06_xyROyRmE8jpRIwYH-151" target="W06_xyROyRmE8jpRIwYH-154" edge="1">
          <mxGeometry relative="1" as="geometry" />
        </mxCell>
        <mxCell id="W06_xyROyRmE8jpRIwYH-151" value="Manager reviews invoice" style="rounded=1;whiteSpace=wrap;html=1;fontSize=16;" parent="1" vertex="1">
          <mxGeometry x="2190" y="4240" width="240" height="120" as="geometry" />
        </mxCell>
        <mxCell id="W06_xyROyRmE8jpRIwYH-157" style="edgeStyle=orthogonalEdgeStyle;rounded=0;orthogonalLoop=1;jettySize=auto;html=1;entryX=0.5;entryY=0;entryDx=0;entryDy=0;" parent="1" source="W06_xyROyRmE8jpRIwYH-154" target="W06_xyROyRmE8jpRIwYH-156" edge="1">
          <mxGeometry relative="1" as="geometry">
            <Array as="points">
              <mxPoint x="2310" y="4770" />
              <mxPoint x="1435" y="4770" />
            </Array>
          </mxGeometry>
        </mxCell>
        <mxCell id="W06_xyROyRmE8jpRIwYH-159" value="Yes" style="edgeLabel;html=1;align=center;verticalAlign=middle;resizable=0;points=[];fontSize=16;" parent="W06_xyROyRmE8jpRIwYH-157" vertex="1" connectable="0">
          <mxGeometry x="-0.8112" y="-1" relative="1" as="geometry">
            <mxPoint as="offset" />
          </mxGeometry>
        </mxCell>
        <mxCell id="W06_xyROyRmE8jpRIwYH-160" style="edgeStyle=orthogonalEdgeStyle;rounded=0;orthogonalLoop=1;jettySize=auto;html=1;entryX=0.5;entryY=0;entryDx=0;entryDy=0;" parent="1" source="W06_xyROyRmE8jpRIwYH-154" target="W06_xyROyRmE8jpRIwYH-158" edge="1">
          <mxGeometry relative="1" as="geometry" />
        </mxCell>
        <mxCell id="W06_xyROyRmE8jpRIwYH-161" value="No" style="edgeLabel;html=1;align=center;verticalAlign=middle;resizable=0;points=[];fontSize=16;" parent="W06_xyROyRmE8jpRIwYH-160" vertex="1" connectable="0">
          <mxGeometry x="-0.8028" y="1" relative="1" as="geometry">
            <mxPoint as="offset" />
          </mxGeometry>
        </mxCell>
        <mxCell id="W06_xyROyRmE8jpRIwYH-154" value="Approval" style="rhombus;whiteSpace=wrap;html=1;fontSize=16;" parent="1" vertex="1">
          <mxGeometry x="2240" y="4420" width="140" height="140" as="geometry" />
        </mxCell>
        <mxCell id="W06_xyROyRmE8jpRIwYH-168" style="edgeStyle=orthogonalEdgeStyle;rounded=0;orthogonalLoop=1;jettySize=auto;html=1;entryX=0;entryY=0.5;entryDx=0;entryDy=0;" parent="1" source="W06_xyROyRmE8jpRIwYH-156" target="W06_xyROyRmE8jpRIwYH-167" edge="1">
          <mxGeometry relative="1" as="geometry" />
        </mxCell>
        <mxCell id="W06_xyROyRmE8jpRIwYH-156" value="System alerts/reminds/send weekly message to IT manager" style="rounded=1;whiteSpace=wrap;html=1;fontSize=16;" parent="1" vertex="1">
          <mxGeometry x="1315" y="4990" width="240" height="120" as="geometry" />
        </mxCell>
        <mxCell id="W06_xyROyRmE8jpRIwYH-163" style="edgeStyle=orthogonalEdgeStyle;rounded=0;orthogonalLoop=1;jettySize=auto;html=1;" parent="1" source="W06_xyROyRmE8jpRIwYH-158" target="W06_xyROyRmE8jpRIwYH-162" edge="1">
          <mxGeometry relative="1" as="geometry" />
        </mxCell>
        <mxCell id="W06_xyROyRmE8jpRIwYH-158" value="Write rejection reason" style="rounded=1;whiteSpace=wrap;html=1;fontSize=16;" parent="1" vertex="1">
          <mxGeometry x="1960" y="4580" width="240" height="120" as="geometry" />
        </mxCell>
        <mxCell id="W06_xyROyRmE8jpRIwYH-165" style="edgeStyle=orthogonalEdgeStyle;rounded=0;orthogonalLoop=1;jettySize=auto;html=1;" parent="1" source="W06_xyROyRmE8jpRIwYH-162" target="W06_xyROyRmE8jpRIwYH-164" edge="1">
          <mxGeometry relative="1" as="geometry" />
        </mxCell>
        <mxCell id="W06_xyROyRmE8jpRIwYH-162" value="System delivers rejection to TekSystems" style="rounded=1;whiteSpace=wrap;html=1;fontSize=16;" parent="1" vertex="1">
          <mxGeometry x="1315" y="4580" width="240" height="120" as="geometry" />
        </mxCell>
        <mxCell id="W06_xyROyRmE8jpRIwYH-166" style="edgeStyle=orthogonalEdgeStyle;rounded=0;orthogonalLoop=1;jettySize=auto;html=1;entryX=0.5;entryY=1;entryDx=0;entryDy=0;" parent="1" source="W06_xyROyRmE8jpRIwYH-164" target="W06_xyROyRmE8jpRIwYH-147" edge="1">
          <mxGeometry relative="1" as="geometry">
            <Array as="points">
              <mxPoint x="730" y="4500" />
              <mxPoint x="1435" y="4500" />
            </Array>
          </mxGeometry>
        </mxCell>
        <mxCell id="W06_xyROyRmE8jpRIwYH-164" value="Manager reviews and corrects" style="rounded=1;whiteSpace=wrap;html=1;fontSize=16;" parent="1" vertex="1">
          <mxGeometry x="610" y="4580" width="240" height="120" as="geometry" />
        </mxCell>
        <mxCell id="W06_xyROyRmE8jpRIwYH-173" style="edgeStyle=orthogonalEdgeStyle;rounded=0;orthogonalLoop=1;jettySize=auto;html=1;" parent="1" source="W06_xyROyRmE8jpRIwYH-167" target="W06_xyROyRmE8jpRIwYH-172" edge="1">
          <mxGeometry relative="1" as="geometry" />
        </mxCell>
        <mxCell id="W06_xyROyRmE8jpRIwYH-167" value="Gets notification" style="rounded=1;whiteSpace=wrap;html=1;fontSize=16;" parent="1" vertex="1">
          <mxGeometry x="3165" y="4990" width="240" height="120" as="geometry" />
        </mxCell>
        <mxCell id="W06_xyROyRmE8jpRIwYH-177" style="edgeStyle=orthogonalEdgeStyle;rounded=0;orthogonalLoop=1;jettySize=auto;html=1;" parent="1" source="W06_xyROyRmE8jpRIwYH-172" target="W06_xyROyRmE8jpRIwYH-176" edge="1">
          <mxGeometry relative="1" as="geometry" />
        </mxCell>
        <mxCell id="W06_xyROyRmE8jpRIwYH-178" value="No" style="edgeLabel;html=1;align=center;verticalAlign=middle;resizable=0;points=[];fontSize=16;" parent="W06_xyROyRmE8jpRIwYH-177" vertex="1" connectable="0">
          <mxGeometry x="-0.8717" relative="1" as="geometry">
            <mxPoint as="offset" />
          </mxGeometry>
        </mxCell>
        <mxCell id="W06_xyROyRmE8jpRIwYH-181" style="edgeStyle=orthogonalEdgeStyle;rounded=0;orthogonalLoop=1;jettySize=auto;html=1;entryX=1;entryY=0.5;entryDx=0;entryDy=0;" parent="1" source="W06_xyROyRmE8jpRIwYH-172" target="W06_xyROyRmE8jpRIwYH-174" edge="1">
          <mxGeometry relative="1" as="geometry">
            <Array as="points">
              <mxPoint x="3285" y="5530" />
            </Array>
          </mxGeometry>
        </mxCell>
        <mxCell id="W06_xyROyRmE8jpRIwYH-184" value="Yes" style="edgeLabel;html=1;align=center;verticalAlign=middle;resizable=0;points=[];fontSize=16;" parent="W06_xyROyRmE8jpRIwYH-181" vertex="1" connectable="0">
          <mxGeometry x="-0.971" y="-3" relative="1" as="geometry">
            <mxPoint as="offset" />
          </mxGeometry>
        </mxCell>
        <mxCell id="W06_xyROyRmE8jpRIwYH-172" value="Approval" style="rhombus;whiteSpace=wrap;html=1;fontSize=16;" parent="1" vertex="1">
          <mxGeometry x="3215" y="5170" width="140" height="140" as="geometry" />
        </mxCell>
        <mxCell id="W06_xyROyRmE8jpRIwYH-186" style="edgeStyle=orthogonalEdgeStyle;rounded=0;orthogonalLoop=1;jettySize=auto;html=1;" parent="1" source="W06_xyROyRmE8jpRIwYH-174" target="W06_xyROyRmE8jpRIwYH-185" edge="1">
          <mxGeometry relative="1" as="geometry" />
        </mxCell>
        <mxCell id="W06_xyROyRmE8jpRIwYH-174" value="Accounts payable system releases payment to TekSystems" style="rounded=1;whiteSpace=wrap;html=1;fontSize=16;" parent="1" vertex="1">
          <mxGeometry x="1315" y="5470" width="240" height="120" as="geometry" />
        </mxCell>
        <mxCell id="W06_xyROyRmE8jpRIwYH-180" style="edgeStyle=orthogonalEdgeStyle;rounded=0;orthogonalLoop=1;jettySize=auto;html=1;" parent="1" source="W06_xyROyRmE8jpRIwYH-176" target="W06_xyROyRmE8jpRIwYH-156" edge="1">
          <mxGeometry relative="1" as="geometry" />
        </mxCell>
        <mxCell id="W06_xyROyRmE8jpRIwYH-176" value="Reviews rejection reason and corrects" style="rounded=1;whiteSpace=wrap;html=1;fontSize=16;" parent="1" vertex="1">
          <mxGeometry x="2240" y="5180" width="240" height="120" as="geometry" />
        </mxCell>
        <mxCell id="W06_xyROyRmE8jpRIwYH-183" style="edgeStyle=orthogonalEdgeStyle;rounded=0;orthogonalLoop=1;jettySize=auto;html=1;exitX=0.5;exitY=1;exitDx=0;exitDy=0;" parent="1" source="W06_xyROyRmE8jpRIwYH-8" target="W06_xyROyRmE8jpRIwYH-8" edge="1">
          <mxGeometry relative="1" as="geometry" />
        </mxCell>
        <mxCell id="W06_xyROyRmE8jpRIwYH-188" style="edgeStyle=orthogonalEdgeStyle;rounded=0;orthogonalLoop=1;jettySize=auto;html=1;" parent="1" source="W06_xyROyRmE8jpRIwYH-185" target="W06_xyROyRmE8jpRIwYH-187" edge="1">
          <mxGeometry relative="1" as="geometry" />
        </mxCell>
        <mxCell id="W06_xyROyRmE8jpRIwYH-185" value="Sends notification to TekSystems" style="rounded=1;whiteSpace=wrap;html=1;fontSize=16;" parent="1" vertex="1">
          <mxGeometry x="1315" y="5660" width="240" height="120" as="geometry" />
        </mxCell>
        <mxCell id="W06_xyROyRmE8jpRIwYH-193" style="edgeStyle=orthogonalEdgeStyle;rounded=0;orthogonalLoop=1;jettySize=auto;html=1;" parent="1" source="W06_xyROyRmE8jpRIwYH-187" target="W06_xyROyRmE8jpRIwYH-192" edge="1">
          <mxGeometry relative="1" as="geometry" />
        </mxCell>
        <mxCell id="W06_xyROyRmE8jpRIwYH-187" value="Receives notification" style="rounded=1;whiteSpace=wrap;html=1;fontSize=16;" parent="1" vertex="1">
          <mxGeometry x="360" y="5660" width="240" height="120" as="geometry" />
        </mxCell>
        <mxCell id="W06_xyROyRmE8jpRIwYH-192" value="" style="ellipse;whiteSpace=wrap;html=1;aspect=fixed;" parent="1" vertex="1">
          <mxGeometry x="440" y="5875" width="80" height="80" as="geometry" />
        </mxCell>
        <mxCell id="W06_xyROyRmE8jpRIwYH-189" value="" style="ellipse;whiteSpace=wrap;html=1;fillColor=#000000;" parent="1" vertex="1">
          <mxGeometry x="455" y="5890" width="50" height="50" as="geometry" />
        </mxCell>
      </root>
    </mxGraphModel>
  </diagram>
</mxfile>
